<svg width="267" height="108" viewBox="0 0 267 108" fill="none" xmlns="http://www.w3.org/2000/svg">
<path d="M1.64409 38.1429L0 25.9766L44.7192 21.0443L45.3768 29.2648L24.9901 71.6823L49.9803 69.3805L51.2956 82.2044L6.57635 86.4791L5.26108 78.2586L24.9901 36.4988L1.64409 38.1429Z" fill="#FF6500"/>
<path d="M65.1059 20.0579L62.1465 80.2315L79.5739 79.5739V68.7229L85.1638 68.0653L87.1367 78.9163L104.564 77.2722L90.0961 18.085L94.6995 16.7697L79.9027 17.4273L85.4926 9.20689L77.9298 16.4409L75.9569 5.91872V16.4409L67.7365 10.851L74.6416 18.085L60.5025 20.0579H65.1059Z" fill="#FF6500"/>
<path d="M110.483 14.468L116.401 75.2993L131.527 74.3128L129.225 49.9803L134.158 49.3227L151.585 72.3399L167.697 70.6958L145.337 40.7734L159.805 9.20689L144.351 10.851L132.185 35.8411H127.581L125.28 13.1527L110.483 14.468Z" fill="#FF6500"/>
<path d="M177.562 7.89163L183.151 68.3941L199.264 67.0788L197.291 41.431L207.484 40.7734L206.498 29.2648L196.304 29.9224L195.318 18.7426L206.498 17.7562L205.182 5.5899L177.562 7.89163Z" fill="#5B5B5B"/>
<path d="M225.898 3.61699L209.457 4.93227L214.718 65.4347L231.488 64.1195L225.898 3.61699Z" fill="#5B5B5B"/>
<path d="M230.83 15.4544L229.844 3.28818L266.014 0L267 12.4951L257.464 12.8239L261.41 61.4889L244.969 62.8042L240.695 14.7968L230.83 15.4544Z" fill="#5B5B5B"/>
<path d="M73.3264 75.2993L74.9704 74.6416V67.7364L75.9569 66.75L76.2857 63.133L76.9433 61.1601L79.5739 56.5566L81.5468 58.2007C81.8756 58.8584 82.5333 60.5025 82.8621 60.5025C83.1909 60.5025 85.1638 62.4754 85.1638 62.8042C85.1638 63.0672 86.2599 65.1059 86.8079 66.0924L89.4384 70.0382V71.3534L89.7672 72.0111L90.4249 72.3399V72.9975C90.951 74.0497 91.3017 74.3128 91.4113 74.3128C91.6744 74.0497 94.5899 74.8608 96.0148 75.2993C97.067 75.5623 97.5493 75.1896 97.6589 74.9704C98.185 74.7074 97.8781 73.984 97.6589 73.6552L95.3571 72.0111C93.7788 70.9589 92.7266 68.7229 92.3978 67.7364C91.3456 65.1059 89.1096 62.9138 88.1232 62.1465C87.8601 59.7791 85.383 55.0222 84.1773 52.9396C84.1773 52.9396 84.1898 52.3371 83.8485 51.9532C83.6578 51.7386 83.7828 51.5586 83.5197 51.2956C83.2566 51.0325 83.1909 49.8707 83.1909 49.3227L84.1773 46.0345L85.8214 43.7328C86.3475 42.9436 85.383 40.9926 84.835 40.1158V37.814L85.4926 38.1429L87.1367 35.5123L87.4655 33.5394C87.7286 32.7502 86.6983 31.6761 86.1502 31.2377C85.3611 30.7116 83.4101 31.4569 82.5333 31.8953L82.2044 33.2106L81.8756 34.8547L82.2044 35.8411V36.8276L80.8892 35.1835V32.8818L80.5603 32.2241L80.2315 30.9089L79.9027 26.6342L79.5739 25.9766V23.3461H79.9027V22.0308L79.2451 21.702H77.9298V23.0172L78.2586 23.3461L77.9298 26.6342L78.5874 28.6071V31.2377V37.814L72.3399 52.9396V62.8042C72.3399 62.8042 71.6804 63.8554 71.3534 64.7771C70.1872 68.0648 70.367 73.6552 70.367 73.6552L69.0517 75.2993L68.3941 75.9569L69.0517 76.9433L71.3534 77.601L73.3264 75.2993Z" fill="white"/>
<path d="M7.01227 108L6 97.9238L8.38105 97.6902L9.24106 106.251L13.7931 105.804L13.8193 107.332L7.01227 108Z" fill="#FF6500"/>
<path d="M17.0532 107.141C16.3576 107.209 15.7694 107.08 15.2888 106.755C14.8124 106.424 14.5374 105.892 14.4637 105.158C14.422 104.743 14.478 104.386 14.6318 104.087C14.7852 103.783 15.0076 103.533 15.299 103.336C15.5905 103.14 15.9262 102.986 16.3063 102.874C16.6864 102.762 17.0795 102.686 17.4857 102.646L18.6832 102.529L18.6242 101.941C18.5806 101.507 18.4328 101.209 18.1808 101.048C17.9289 100.886 17.5974 100.825 17.1866 100.866C16.8458 100.899 16.4662 100.992 16.0478 101.145C15.6336 101.293 15.2329 101.481 14.8457 101.71L14.2606 100.391C14.5842 100.187 14.9198 100.007 15.2672 99.852C15.6147 99.6968 15.9675 99.5713 16.3256 99.4756C16.6837 99.3799 17.0355 99.3151 17.381 99.2812C17.9786 99.2226 18.5238 99.2763 19.0167 99.4422C19.5138 99.6031 19.9232 99.9008 20.245 100.335C20.571 100.764 20.7718 101.355 20.8474 102.107L21.2986 106.598L19.6248 106.763L19.3229 105.94C19.164 106.142 18.98 106.327 18.7707 106.497C18.561 106.662 18.3158 106.803 18.0351 106.919C17.754 107.03 17.4267 107.104 17.0532 107.141ZM17.6151 105.835C17.9232 105.804 18.188 105.718 18.4093 105.575C18.6349 105.427 18.8075 105.268 18.9272 105.098L18.7735 103.568L18.0872 103.636C17.7511 103.669 17.4558 103.733 17.2013 103.828C16.9468 103.922 16.7532 104.06 16.6204 104.241C16.4919 104.417 16.4421 104.647 16.4708 104.934C16.5069 105.293 16.6379 105.541 16.8638 105.678C17.0892 105.809 17.3396 105.862 17.6151 105.835Z" fill="#FF6500"/>
<path d="M27.6644 105.974L27.0393 99.7524L25.9539 99.8589L25.879 98.762L26.9156 98.5206L26.8586 97.9531C26.7923 97.2933 26.8578 96.7721 27.0551 96.3893C27.2519 96.0019 27.5418 95.7196 27.9247 95.5422C28.3072 95.3603 28.7412 95.2455 29.2268 95.1978C29.7356 95.1479 30.1374 95.1341 30.4319 95.1565C30.7265 95.1788 30.9169 95.1974 31.0033 95.2122L31.0611 96.5624C30.8814 96.5567 30.7138 96.5545 30.5584 96.5558C30.4076 96.5566 30.2715 96.563 30.1501 96.5749C29.8933 96.6001 29.6818 96.6534 29.5155 96.735C29.3488 96.8119 29.2311 96.9306 29.1624 97.0911C29.0983 97.2511 29.0797 97.4649 29.1066 97.7325L29.1601 98.2654L31.0299 98.082L31.1572 99.3484L29.2873 99.5319L29.9124 105.753L27.6644 105.974Z" fill="#FF6500"/>
<path d="M36.3138 105.272C35.5341 105.349 34.8477 105.251 34.2545 104.978C33.6609 104.701 33.1853 104.284 32.8276 103.727C32.4699 103.171 32.2522 102.505 32.1743 101.73C32.0969 100.959 32.1786 100.271 32.4195 99.6649C32.6599 99.0542 33.044 98.56 33.5718 98.182C34.0991 97.7995 34.7526 97.57 35.5323 97.4935C36.312 97.417 36.9961 97.5153 37.5846 97.7884C38.1773 98.0563 38.6522 98.4663 39.0094 99.0184C39.3708 99.5653 39.5902 100.224 39.6676 100.994C39.7455 101.77 39.6621 102.465 39.4175 103.081C39.1776 103.696 38.7942 104.197 38.2673 104.584C37.7446 104.966 37.0934 105.196 36.3138 105.272ZM36.1685 103.826C36.4953 103.794 36.7594 103.677 36.9607 103.475C37.1616 103.269 37.2998 102.979 37.3752 102.603C37.4553 102.227 37.4678 101.765 37.4126 101.216C37.3575 100.667 37.256 100.22 37.1083 99.8758C36.9601 99.5269 36.7651 99.2758 36.5234 99.1225C36.2864 98.9687 36.0044 98.9078 35.6776 98.9399C35.1874 98.988 34.8338 99.223 34.6169 99.645C34.4047 100.066 34.3398 100.688 34.4223 101.509C34.4779 102.063 34.5801 102.516 34.7287 102.87C34.8821 103.223 35.0798 103.478 35.322 103.636C35.5642 103.794 35.8463 103.857 36.1685 103.826Z" fill="#FF6500"/>
<path d="M41.6005 104.607L40.8483 97.1187L42.7881 96.9284L43.0435 98.2033C43.2301 97.6678 43.4867 97.2885 43.8132 97.0655C44.1397 96.8424 44.499 96.7117 44.8912 96.6732C45.0219 96.6604 45.151 96.6547 45.2784 96.6562C45.4059 96.6576 45.5335 96.6614 45.6615 96.6675L45.6848 98.3076C45.5802 98.2992 45.481 98.2973 45.3872 98.3018C45.2929 98.3017 45.213 98.3049 45.1477 98.3113C44.8069 98.3448 44.4982 98.4403 44.2217 98.5978C43.9448 98.7508 43.7325 98.9603 43.5847 99.2264C43.4417 99.4921 43.3882 99.8048 43.4244 100.165L43.8485 104.386L41.6005 104.607Z" fill="#FF6500"/>
<path d="M47.6302 104.015L46.8779 96.5272L48.7968 96.3389L49.0584 97.6062C49.2165 97.162 49.4668 96.7904 49.8092 96.4912C50.1516 96.192 50.6053 96.0148 51.1702 95.9593C51.497 95.9273 51.8102 95.9478 52.1099 96.0209C52.4138 96.0889 52.691 96.2201 52.9415 96.4145C53.1968 96.6085 53.4122 96.8762 53.588 97.2177C53.7452 96.7643 53.9989 96.3807 54.3493 96.0668C54.7043 95.7524 55.1806 95.5659 55.7782 95.5073C56.6093 95.4257 57.2655 95.6223 57.7469 96.0968C58.2326 96.5664 58.5217 97.2625 58.6144 98.1852L59.0872 102.891L56.8392 103.112L56.4019 98.7587C56.3597 98.3389 56.29 97.9963 56.1926 97.7309C56.0999 97.4651 55.9723 97.275 55.8099 97.1605C55.6476 97.0459 55.438 97.0013 55.1812 97.0265C54.9571 97.0484 54.7498 97.1433 54.5592 97.3111C54.3733 97.4785 54.2302 97.6975 54.1301 97.9682C54.0347 98.2385 54.0037 98.5397 54.0371 98.8719L54.4862 103.343L52.2312 103.564L51.8008 99.28C51.7522 98.7956 51.6766 98.4186 51.5741 98.1491C51.4716 97.8796 51.3375 97.6948 51.1718 97.5945C51.0062 97.4943 50.8043 97.4559 50.5662 97.4792C50.3234 97.503 50.1128 97.5889 49.9344 97.7369C49.7606 97.8844 49.6286 98.0954 49.5383 98.3698C49.448 98.6442 49.4113 98.9833 49.4283 99.387L49.8711 103.795L47.6302 104.015Z" fill="#FF6500"/>
<path d="M64.5915 102.491C63.7932 102.569 63.0794 102.481 62.4503 102.226C61.8212 101.971 61.3117 101.569 60.9218 101.02C60.5315 100.466 60.2965 99.793 60.2167 98.9995C60.1356 98.1921 60.2225 97.4847 60.4774 96.8773C60.7318 96.2653 61.1233 95.7749 61.6521 95.4062C62.1855 95.0371 62.8233 94.8161 63.5657 94.7433C64.3313 94.6681 64.9652 94.7597 65.4674 95.018C65.9737 95.2711 66.3684 95.6564 66.6514 96.1737C66.9339 96.6865 67.1202 97.2972 67.2102 98.0059C67.2251 98.1535 67.232 98.2926 67.2309 98.4231C67.2295 98.5491 67.2259 98.6543 67.2202 98.7387C67.2192 98.8226 67.2173 98.8741 67.2145 98.893L62.5084 99.3547C62.5912 99.7566 62.7353 100.087 62.9405 100.347C63.1504 100.606 63.4072 100.792 63.7111 100.907C64.0149 101.022 64.3465 101.061 64.706 101.026C65.1029 100.987 65.4659 100.893 65.7951 100.744C66.1244 100.596 66.427 100.417 66.7031 100.208L66.8221 100.196L67.4221 101.312C67.1498 101.604 66.7628 101.859 66.2612 102.076C65.7644 102.292 65.2078 102.43 64.5915 102.491ZM62.3524 98.154L65.3007 97.8647C65.2307 97.2146 65.0693 96.7576 64.8165 96.4935C64.5632 96.2248 64.2217 96.1116 63.7922 96.1537C63.3487 96.1972 62.9898 96.3792 62.7155 96.6996C62.4455 97.015 62.3244 97.4998 62.3524 98.154Z" fill="#FF6500"/>
<path d="M69.8282 104.214L69.6695 99.959L71.5744 99.7722L71.6835 100.859C71.6437 101.072 71.6064 101.288 71.5717 101.506C71.5366 101.719 71.5014 101.932 71.4662 102.145C71.4315 102.363 71.3966 102.578 71.3614 102.791C71.3267 103.009 71.2894 103.225 71.2496 103.438C71.2149 103.656 71.18 103.871 71.1448 104.084L69.8282 104.214Z" fill="#FF6500"/>
<path d="M81.616 100.821C80.8317 100.898 80.1366 100.807 79.5309 100.55C78.9293 100.288 78.4429 99.881 78.0717 99.3304C77.7052 98.7793 77.4818 98.1047 77.4016 97.3065C77.3214 96.5084 77.4088 95.8056 77.6636 95.1982C77.918 94.5862 78.3166 94.0952 78.8594 93.7251C79.4016 93.3504 80.0649 93.1246 80.8493 93.0476C81.3535 92.9982 81.7967 93.0222 82.179 93.1199C82.5613 93.2175 82.8964 93.3849 83.1842 93.6223C83.4716 93.855 83.7235 94.1564 83.9398 94.5266L82.772 95.2911L82.6809 95.3C82.4715 94.9991 82.2359 94.7892 81.9741 94.6705C81.7123 94.5517 81.4115 94.5137 81.0716 94.5564C80.7494 94.588 80.4704 94.6969 80.2345 94.8831C79.9982 95.0647 79.8252 95.3379 79.7157 95.7027C79.6104 96.0625 79.5861 96.5238 79.6426 97.0867C79.7001 97.6588 79.8162 98.111 79.9911 98.4432C80.1659 98.7755 80.3849 99.008 80.6481 99.1406C80.9113 99.2731 81.2065 99.3257 81.5338 99.2983C81.8755 99.2741 82.1609 99.1808 82.3897 99.0186C82.6233 98.8559 82.8148 98.6042 82.9645 98.2634L83.0555 98.2544L84.352 98.7702C84.2135 99.1751 84.0268 99.5219 83.7918 99.8106C83.5563 100.095 83.2585 100.322 82.8984 100.492C82.5431 100.662 82.1156 100.772 81.616 100.821Z" fill="#FF6500"/>
<path d="M85.1789 93.1331L85.0884 89.5567L87.0212 89.3671L86.5375 92.9998L85.1789 93.1331Z" fill="#FF6500"/>
<path d="M93.3602 99.6685C92.5619 99.7469 91.8481 99.6585 91.219 99.4034C90.5899 99.1483 90.0804 98.7463 89.6905 98.1975C89.3002 97.6441 89.0651 96.9706 88.9854 96.1771C88.9043 95.3697 88.9912 94.6623 89.246 94.0549C89.5005 93.4429 89.892 92.9525 90.4207 92.5839C90.9541 92.2147 91.592 91.9937 92.3343 91.9209C93.1 91.8458 93.7339 91.9373 94.236 92.1956C94.7424 92.4487 95.137 92.834 95.42 93.3514C95.7026 93.8641 95.8889 94.4748 95.9789 95.1835C95.9938 95.3311 96.0006 95.4702 95.9996 95.6008C95.9981 95.7267 95.9946 95.8319 95.9889 95.9163C95.9879 96.0003 95.986 96.0517 95.9832 96.0706L91.2771 96.5323C91.3599 96.9342 91.5039 97.2648 91.7091 97.5243C91.919 97.7832 92.1759 97.97 92.4797 98.0846C92.7836 98.1993 93.1152 98.2389 93.4747 98.2037C93.8715 98.1647 94.2346 98.0709 94.5638 97.9221C94.893 97.7733 95.1957 97.5945 95.4717 97.3858L95.5908 97.3741L96.1908 98.4893C95.9184 98.7816 95.5315 99.0362 95.0299 99.2531C94.533 99.4696 93.9765 99.6081 93.3602 99.6685ZM91.1211 95.3316L94.0694 95.0423C93.9994 94.3923 93.838 93.9352 93.5851 93.6712C93.3318 93.4025 92.9904 93.2892 92.5609 93.3313C92.1174 93.3749 91.7585 93.5568 91.4842 93.8773C91.2141 94.1926 91.0931 94.6774 91.1211 95.3316Z" fill="#FF6500"/>
<path d="M100.818 98.9368C100.085 99.0088 99.4126 98.9513 98.7998 98.7645C98.1911 98.5726 97.7054 98.2429 97.3425 97.7753L98.297 96.7871L98.4791 96.7692C98.7183 97.0859 99.0251 97.3004 99.3995 97.4128C99.7785 97.5247 100.124 97.5653 100.437 97.5346C100.769 97.5021 101.011 97.4061 101.165 97.2465C101.323 97.0866 101.39 96.882 101.365 96.6329C101.354 96.5268 101.324 96.4319 101.273 96.3484C101.221 96.2603 101.136 96.1825 101.016 96.115C100.896 96.0476 100.725 95.9898 100.503 95.9417L99.4798 95.6787C98.9571 95.5436 98.5359 95.3869 98.2162 95.2086C97.8966 95.0303 97.6556 94.814 97.4933 94.5597C97.3353 94.3003 97.2384 93.993 97.2027 93.6377C97.1355 92.9687 97.3439 92.4148 97.8278 91.976C98.3113 91.5325 98.9989 91.2671 99.8907 91.1796C100.311 91.1383 100.712 91.1456 101.095 91.2012C101.482 91.2517 101.835 91.3616 102.154 91.5306C102.477 91.6946 102.75 91.9287 102.974 92.2329L102.051 93.1831L101.953 93.1927C101.765 92.9642 101.534 92.8005 101.26 92.7016C100.986 92.6026 100.704 92.5674 100.415 92.5958C100.209 92.6159 100.037 92.6608 99.8979 92.7303C99.7583 92.7953 99.6562 92.8822 99.5917 92.991C99.5314 93.0948 99.5085 93.2182 99.5228 93.3612C99.5372 93.5042 99.5969 93.6288 99.7018 93.735C99.811 93.8361 100.04 93.9325 100.389 94.024L101.652 94.4173C102.083 94.5334 102.426 94.6861 102.681 94.8754C102.935 95.0602 103.121 95.2725 103.24 95.5125C103.362 95.7474 103.437 95.9986 103.464 96.2662C103.51 96.723 103.434 97.1427 103.237 97.5255C103.04 97.9083 102.737 98.2245 102.328 98.4743C101.919 98.724 101.416 98.8782 100.818 98.9368Z" fill="#FF6500"/>
<path d="M108.535 98.1029C107.886 98.1666 107.358 98.1602 106.949 98.0838C106.545 98.0069 106.231 97.8607 106.007 97.6451C105.783 97.4295 105.617 97.1475 105.512 96.7991C105.41 96.4457 105.335 96.029 105.287 95.5492L104.943 92.1236L103.788 92.2369L103.725 91.055L104.869 90.8239L104.803 88.6919L106.798 88.3424L107.027 90.6262L109.044 90.4283L109.173 91.7086L107.156 91.9065L107.507 95.4013C107.537 95.6966 107.589 95.9314 107.663 96.1059C107.742 96.2799 107.864 96.4006 108.032 96.4681C108.199 96.5355 108.432 96.5615 108.732 96.5461C108.906 96.5337 109.079 96.5237 109.253 96.516C109.431 96.5032 109.606 96.4929 109.78 96.4852L109.855 97.9385C109.636 97.9646 109.415 97.991 109.191 98.0176C108.973 98.0483 108.754 98.0768 108.535 98.1029Z" fill="#FF6500"/>
<path d="M115.769 100.629L114.689 89.8746L116.664 89.6808L116.859 90.9196C116.994 90.4778 117.228 90.1146 117.563 89.8302C117.897 89.5412 118.337 89.3699 118.883 89.3163C119.56 89.2499 120.137 89.3633 120.615 89.6566C121.091 89.9453 121.469 90.3695 121.747 90.9293C122.024 91.4845 122.2 92.1312 122.274 92.8694C122.351 93.6352 122.302 94.3249 122.128 94.9383C121.959 95.5513 121.66 96.0489 121.231 96.431C120.803 96.8086 120.247 97.0308 119.566 97.0976C119.104 97.143 118.706 97.1005 118.372 96.9702C118.038 96.8398 117.764 96.671 117.55 96.4637L117.694 97.5468L117.982 100.412L115.769 100.629ZM118.875 95.7118C119.071 95.6925 119.249 95.6378 119.41 95.5474C119.57 95.4525 119.704 95.3066 119.812 95.1097C119.923 94.9077 119.998 94.6418 120.036 94.312C120.078 93.9817 120.074 93.572 120.025 93.083C119.966 92.497 119.868 92.0338 119.73 91.6932C119.592 91.3527 119.417 91.1159 119.206 90.9829C118.994 90.8452 118.755 90.7895 118.489 90.8156C118.218 90.8422 117.988 90.9184 117.798 91.0442C117.612 91.1695 117.466 91.333 117.359 91.5345C117.252 91.7314 117.183 91.9618 117.153 92.2256L117.452 95.2014C117.615 95.3718 117.81 95.5087 118.037 95.6122C118.269 95.7106 118.548 95.7438 118.875 95.7118Z" fill="#FF6500"/>
<path d="M126.259 96.427C125.564 96.4952 124.976 96.3666 124.495 96.041C124.019 95.7103 123.743 95.1782 123.67 94.4446C123.628 94.0294 123.684 93.6722 123.838 93.3729C123.991 93.069 124.214 92.8188 124.505 92.6225C124.797 92.4262 125.132 92.2721 125.512 92.1603C125.893 92.0484 126.286 91.9726 126.692 91.9328L127.889 91.8153L127.83 91.227C127.787 90.7933 127.639 90.4957 127.387 90.334C127.135 90.1724 126.804 90.1117 126.393 90.152C126.052 90.1855 125.672 90.2786 125.254 90.4315C124.84 90.5793 124.439 90.7677 124.052 90.9967L123.467 89.6773C123.79 89.4732 124.126 89.2935 124.473 89.1383C124.821 88.9831 125.174 88.8576 125.532 88.7619C125.89 88.6662 126.242 88.6014 126.587 88.5675C127.185 88.5089 127.73 88.5625 128.223 88.7285C128.72 88.8894 129.129 89.187 129.451 89.6214C129.777 90.0506 129.978 90.6413 130.053 91.3933L130.505 95.8847L128.831 96.0489L128.529 95.2259C128.37 95.4278 128.186 95.6136 127.977 95.7833C127.767 95.9483 127.522 96.0888 127.241 96.2049C126.96 96.3163 126.633 96.3903 126.259 96.427ZM126.821 95.1209C127.129 95.0907 127.394 95.0041 127.615 94.8613C127.841 94.7133 128.014 94.5543 128.133 94.3841L127.98 92.8547L127.293 92.922C126.957 92.955 126.662 93.0189 126.407 93.1138C126.153 93.2086 125.959 93.3464 125.827 93.5272C125.698 93.7029 125.648 93.9337 125.677 94.2198C125.713 94.5796 125.844 94.8277 126.07 94.964C126.295 95.0956 126.546 95.1479 126.821 95.1209Z" fill="#FF6500"/>
<path d="M135.078 95.5758C134.345 95.6477 133.672 95.5903 133.059 95.4035C132.45 95.2116 131.964 94.8819 131.602 94.4143L132.556 93.4261L132.738 93.4082C132.977 93.7249 133.284 93.9394 133.659 94.0517C134.038 94.1637 134.383 94.2043 134.696 94.1736C135.028 94.1411 135.27 94.045 135.424 93.8855C135.582 93.7256 135.649 93.521 135.624 93.2719C135.613 93.1658 135.583 93.0709 135.532 92.9874C135.481 92.8992 135.395 92.8214 135.275 92.754C135.155 92.6866 134.984 92.6288 134.763 92.5806L133.739 92.3176C133.216 92.1826 132.795 92.0259 132.475 91.8476C132.156 91.6693 131.915 91.453 131.752 91.1987C131.594 90.9393 131.497 90.632 131.462 90.2767C131.395 89.6077 131.603 89.0538 132.087 88.615C132.57 88.1715 133.258 87.906 134.15 87.8186C134.57 87.7773 134.971 87.7845 135.354 87.8402C135.741 87.8907 136.094 88.0005 136.413 88.1696C136.736 88.3336 137.009 88.5677 137.233 88.8719L136.31 89.822L136.212 89.8317C136.024 89.6032 135.793 89.4395 135.519 89.3405C135.245 89.2416 134.963 89.2064 134.674 89.2348C134.468 89.2549 134.296 89.2998 134.157 89.3693C134.017 89.4343 133.915 89.5212 133.851 89.63C133.791 89.7338 133.768 89.8572 133.782 90.0002C133.796 90.1432 133.856 90.2678 133.961 90.374C134.07 90.4751 134.299 90.5714 134.648 90.663L135.911 91.0563C136.342 91.1724 136.685 91.3251 136.94 91.5144C137.194 91.6991 137.38 91.9115 137.499 92.1515C137.621 92.3864 137.696 92.6376 137.723 92.9052C137.769 93.362 137.693 93.7817 137.496 94.1645C137.299 94.5473 136.996 94.8635 136.587 95.1133C136.178 95.363 135.675 95.5172 135.078 95.5758Z" fill="#FF6500"/>
<path d="M146.339 94.4711C145.606 94.543 144.933 94.4855 144.32 94.2987C143.711 94.1068 143.225 93.7771 142.863 93.3095L143.817 92.3213L143.999 92.3035C144.238 92.6201 144.545 92.8346 144.919 92.947C145.298 93.0589 145.644 93.0995 145.957 93.0688C146.289 93.0363 146.531 92.9403 146.685 92.7808C146.843 92.6208 146.91 92.4162 146.885 92.1671C146.874 92.061 146.844 91.9662 146.793 91.8826C146.741 91.7945 146.656 91.7167 146.536 91.6492C146.416 91.5818 146.245 91.524 146.023 91.4759L145 91.2129C144.477 91.0778 144.056 90.9211 143.736 90.7428C143.417 90.5645 143.176 90.3482 143.013 90.0939C142.855 89.8345 142.758 89.5272 142.723 89.172C142.656 88.503 142.864 87.9491 143.348 87.5102C143.831 87.0668 144.519 86.8013 145.411 86.7138C145.831 86.6726 146.232 86.6798 146.615 86.7354C147.002 86.786 147.355 86.8958 147.674 87.0649C147.997 87.2289 148.27 87.4629 148.494 87.7671L147.571 88.7173L147.473 88.7269C147.285 88.4984 147.054 88.3347 146.78 88.2358C146.506 88.1369 146.224 88.1016 145.935 88.13C145.729 88.1502 145.557 88.195 145.418 88.2646C145.278 88.3295 145.176 88.4164 145.112 88.5252C145.051 88.629 145.029 88.7524 145.043 88.8954C145.057 89.0384 145.117 89.163 145.222 89.2692C145.331 89.3703 145.56 89.4667 145.909 89.5583L147.172 89.9515C147.603 90.0676 147.946 90.2203 148.201 90.4097C148.455 90.5944 148.641 90.8067 148.76 91.0467C148.882 91.2816 148.957 91.5329 148.984 91.8004C149.03 92.2572 148.954 92.677 148.757 93.0597C148.56 93.4425 148.257 93.7587 147.848 94.0085C147.439 94.2583 146.936 94.4124 146.339 94.4711Z" fill="#FF6500"/>
<path d="M154.05 93.7216C153.27 93.798 152.584 93.7 151.99 93.4274C151.397 93.1502 150.921 92.7332 150.563 92.1766C150.206 91.62 149.988 90.9541 149.91 90.1791C149.833 89.4086 149.914 88.7203 150.155 88.1143C150.396 87.5037 150.78 87.0094 151.308 86.6315C151.835 86.2489 152.488 86.0194 153.268 85.9429C154.048 85.8664 154.732 85.9647 155.32 86.2378C155.913 86.5058 156.388 86.9158 156.745 87.4678C157.107 88.0147 157.326 88.6734 157.403 89.4439C157.481 90.219 157.398 90.9144 157.153 91.5301C156.913 92.1454 156.53 92.6466 156.003 93.0337C155.48 93.4158 154.829 93.6451 154.05 93.7216ZM153.904 92.2752C154.231 92.2431 154.495 92.1264 154.697 91.9249C154.897 91.7188 155.036 91.428 155.111 91.0526C155.191 90.6766 155.204 90.2142 155.148 89.6651C155.093 89.1161 154.992 88.6695 154.844 88.3252C154.696 87.9763 154.501 87.7252 154.259 87.5719C154.022 87.4181 153.74 87.3573 153.413 87.3893C152.923 87.4374 152.57 87.6724 152.353 88.0944C152.141 88.5159 152.076 89.1373 152.158 89.9585C152.214 90.5121 152.316 90.9657 152.465 91.3192C152.618 91.6722 152.816 91.9277 153.058 92.0857C153.3 92.2436 153.582 92.3068 153.904 92.2752Z" fill="#FF6500"/>
<path d="M159.336 93.0561L158.584 85.5682L160.524 85.3779L160.779 86.6527C160.966 86.1172 161.223 85.738 161.549 85.5149C161.876 85.2919 162.235 85.1611 162.627 85.1226C162.758 85.1098 162.887 85.1041 163.014 85.1056C163.142 85.1071 163.269 85.1108 163.397 85.1169L163.421 86.757C163.316 86.7486 163.217 86.7467 163.123 86.7512C163.029 86.7512 162.949 86.7543 162.884 86.7608C162.543 86.7942 162.234 86.8897 161.958 87.0473C161.681 87.2003 161.468 87.4098 161.321 87.6759C161.178 87.9415 161.124 88.2542 161.16 88.6141L161.584 92.8356L159.336 93.0561Z" fill="#FF6500"/>
<path d="M168.776 92.2698C167.992 92.3467 167.297 92.2565 166.691 91.9991C166.09 91.7367 165.603 91.3301 165.232 90.7795C164.866 90.2284 164.642 89.5538 164.562 88.7556C164.482 87.9574 164.569 87.2547 164.824 86.6473C165.078 86.0353 165.477 85.5442 166.02 85.1742C166.562 84.7995 167.225 84.5737 168.01 84.4967C168.514 84.4472 168.957 84.4713 169.339 84.5689C169.722 84.6665 170.057 84.834 170.345 85.0713C170.632 85.3041 170.884 85.6055 171.1 85.9756L169.932 86.7401L169.841 86.7491C169.632 86.4481 169.396 86.2383 169.135 86.1196C168.873 86.0008 168.572 85.9628 168.232 86.0054C167.91 86.037 167.631 86.1459 167.395 86.3321C167.159 86.5137 166.986 86.787 166.876 87.1518C166.771 87.5116 166.746 87.9729 166.803 88.5357C166.86 89.1078 166.977 89.56 167.151 89.8923C167.326 90.2246 167.545 90.457 167.808 90.5896C168.072 90.7222 168.367 90.7748 168.694 90.7473C169.036 90.7231 169.321 90.6299 169.55 90.4677C169.784 90.305 169.975 90.0532 170.125 89.7124L170.216 89.7035L171.512 90.2193C171.374 90.6242 171.187 90.971 170.952 91.2596C170.717 91.5436 170.419 91.7709 170.059 91.9413C169.703 92.1113 169.276 92.2208 168.776 92.2698Z" fill="#FF6500"/>
<path d="M173.195 91.6965L172.443 84.2085L174.691 83.988L175.443 91.4759L173.195 91.6965ZM173.406 82.6743C173.024 82.7119 172.71 82.6402 172.465 82.4592C172.225 82.2731 172.087 82.0001 172.051 81.6402C172.017 81.2988 172.099 81.0182 172.299 80.7982C172.503 80.5779 172.796 80.4489 173.179 80.4113C173.567 80.3733 173.88 80.4428 174.119 80.6196C174.359 80.7965 174.496 81.0556 174.53 81.397C174.566 81.7569 174.485 82.0514 174.286 82.2805C174.087 82.5051 173.794 82.6363 173.406 82.6743Z" fill="#FF6500"/>
<path d="M180.983 91.0723C180.184 91.1506 179.471 91.0622 178.842 90.8071C178.212 90.552 177.703 90.1501 177.313 89.6012C176.923 89.0478 176.688 88.3744 176.608 87.5808C176.527 86.7734 176.614 86.066 176.869 85.4586C177.123 84.8466 177.515 84.3563 178.043 83.9876C178.577 83.6184 179.215 83.3974 179.957 83.3246C180.723 83.2495 181.356 83.3411 181.859 83.5993C182.365 83.8525 182.76 84.2377 183.043 84.7551C183.325 85.2678 183.511 85.8785 183.602 86.5872C183.616 86.7348 183.623 86.8739 183.622 87.0045C183.621 87.1304 183.617 87.2356 183.611 87.32C183.61 87.404 183.609 87.4554 183.606 87.4743L178.9 87.936C178.982 88.3379 179.127 88.6686 179.332 88.928C179.542 89.1869 179.798 89.3737 180.102 89.4884C180.406 89.603 180.738 89.6427 181.097 89.6074C181.494 89.5685 181.857 89.4746 182.186 89.3258C182.516 89.177 182.818 88.9983 183.094 88.7895L183.213 88.7778L183.813 89.893C183.541 90.1853 183.154 90.4399 182.652 90.6569C182.156 90.8733 181.599 91.0118 180.983 91.0723ZM178.744 86.7353L181.692 86.4461C181.622 85.796 181.461 85.3389 181.208 85.0749C180.954 84.8062 180.613 84.6929 180.183 84.7351C179.74 84.7786 179.381 84.9606 179.107 85.281C178.837 85.5963 178.716 86.0811 178.744 86.7353Z" fill="#FF6500"/>
<path d="M185.612 90.4784L184.86 82.9904L186.8 82.8001L187.055 84.0749C187.242 83.5394 187.498 83.1602 187.825 82.9371C188.151 82.7141 188.51 82.5833 188.903 82.5448C189.033 82.532 189.162 82.5263 189.29 82.5278C189.417 82.5293 189.545 82.5331 189.673 82.5392L189.696 84.1792C189.592 84.1708 189.492 84.1689 189.399 84.1735C189.304 84.1734 189.224 84.1766 189.159 84.183C188.818 84.2164 188.51 84.3119 188.233 84.4695C187.956 84.6225 187.744 84.832 187.596 85.0981C187.453 85.3637 187.4 85.6765 187.436 86.0363L187.86 90.2578L185.612 90.4784Z" fill="#FF6500"/>
<path d="M191.598 92.2673L191.439 88.0127L193.344 87.8259L193.453 88.9124C193.413 89.1259 193.376 89.3416 193.341 89.5593C193.306 89.7724 193.271 89.9855 193.236 90.1986C193.201 90.4164 193.166 90.6318 193.131 90.8449C193.096 91.0626 193.059 91.2783 193.019 91.4918C192.985 91.7096 192.95 91.925 192.914 92.1381L191.598 92.2673Z" fill="#FF6500"/>
<path d="M203.386 88.8744C202.601 88.9514 201.906 88.8611 201.3 88.6038C200.699 88.3413 200.213 87.9347 199.841 87.3841C199.475 86.833 199.251 86.1584 199.171 85.3602C199.091 84.5621 199.178 83.8593 199.433 83.2519C199.688 82.6399 200.086 82.1489 200.629 81.7788C201.171 81.4041 201.835 81.1783 202.619 81.1013C203.123 81.0519 203.566 81.0759 203.949 81.1736C204.331 81.2712 204.666 81.4386 204.954 81.676C205.241 81.9087 205.493 82.2101 205.709 82.5803L204.542 83.3448L204.451 83.3537C204.241 83.0528 204.006 82.8429 203.744 82.7242C203.482 82.6054 203.181 82.5674 202.841 82.6101C202.519 82.6417 202.24 82.7506 202.004 82.9368C201.768 83.1184 201.595 83.3916 201.485 83.7564C201.38 84.1162 201.356 84.5775 201.412 85.1404C201.47 85.7125 201.586 86.1647 201.761 86.4969C201.936 86.8292 202.155 87.0617 202.418 87.1943C202.681 87.3268 202.976 87.3794 203.303 87.352C203.645 87.3278 203.93 87.2345 204.159 87.0723C204.393 86.9096 204.584 86.6579 204.734 86.3171L204.825 86.3081L206.122 86.8239C205.983 87.2288 205.796 87.5756 205.561 87.8643C205.326 88.1483 205.028 88.3755 204.668 88.5459C204.313 88.7159 203.885 88.8254 203.386 88.8744Z" fill="#5B5B5B"/>
<path d="M206.949 81.1868L206.858 77.6104L208.791 77.4208L208.307 81.0535L206.949 81.1868Z" fill="#5B5B5B"/>
<path d="M215.13 87.7222C214.331 87.8006 213.618 87.7122 212.989 87.4571C212.36 87.202 211.85 86.8 211.46 86.2512C211.07 85.6978 210.835 85.0243 210.755 84.2308C210.674 83.4234 210.761 82.716 211.016 82.1086C211.27 81.4966 211.662 81.0063 212.19 80.6376C212.724 80.2684 213.362 80.0474 214.104 79.9746C214.87 79.8995 215.504 79.991 216.006 80.2493C216.512 80.5024 216.907 80.8877 217.19 81.4051C217.472 81.9178 217.658 82.5285 217.749 83.2372C217.763 83.3848 217.77 83.5239 217.769 83.6545C217.768 83.7804 217.764 83.8856 217.759 83.97C217.758 84.054 217.756 84.1054 217.753 84.1243L213.047 84.586C213.13 84.9879 213.274 85.3185 213.479 85.578C213.689 85.8369 213.946 86.0237 214.249 86.1383C214.553 86.253 214.885 86.2926 215.244 86.2574C215.641 86.2184 216.004 86.1246 216.333 85.9758C216.663 85.827 216.965 85.6482 217.241 85.4395L217.36 85.4278L217.96 86.543C217.688 86.8353 217.301 87.0899 216.8 87.3068C216.303 87.5233 215.746 87.6618 215.13 87.7222ZM212.891 83.3853L215.839 83.096C215.769 82.446 215.608 81.9889 215.355 81.7249C215.101 81.4562 214.76 81.3429 214.331 81.385C213.887 81.4286 213.528 81.6105 213.254 81.931C212.984 82.2463 212.863 82.7311 212.891 83.3853Z" fill="#5B5B5B"/>
<path d="M222.588 86.9906C221.855 87.0625 221.182 87.005 220.569 86.8182C219.961 86.6263 219.475 86.2966 219.112 85.829L220.067 84.8408L220.249 84.8229C220.488 85.1396 220.795 85.3541 221.169 85.4665C221.548 85.5784 221.894 85.619 222.207 85.5883C222.538 85.5558 222.781 85.4598 222.935 85.3002C223.093 85.1403 223.16 84.9357 223.135 84.6866C223.124 84.5805 223.093 84.4856 223.042 84.4021C222.991 84.314 222.905 84.2362 222.786 84.1687C222.666 84.1013 222.495 84.0435 222.273 83.9954L221.249 83.7324C220.727 83.5973 220.305 83.4406 219.986 83.2623C219.666 83.084 219.425 82.8677 219.263 82.6134C219.105 82.354 219.008 82.0467 218.972 81.6914C218.905 81.0224 219.113 80.4685 219.597 80.0297C220.081 79.5862 220.769 79.3208 221.66 79.2333C222.08 79.1921 222.482 79.1993 222.865 79.2549C223.252 79.3054 223.605 79.4153 223.923 79.5843C224.246 79.7483 224.52 79.9824 224.743 80.2866L223.821 81.2368L223.722 81.2464C223.535 81.0179 223.304 80.8542 223.03 80.7553C222.756 80.6563 222.474 80.6211 222.184 80.6495C221.979 80.6696 221.807 80.7145 221.668 80.784C221.528 80.849 221.426 80.9359 221.361 81.0447C221.301 81.1485 221.278 81.2719 221.292 81.4149C221.307 81.5579 221.367 81.6825 221.471 81.7887C221.581 81.8898 221.81 81.9862 222.158 82.0777L223.421 82.471C223.852 82.5871 224.195 82.7398 224.45 82.9291C224.705 83.1139 224.891 83.3262 225.009 83.5662C225.132 83.8011 225.207 84.0523 225.234 84.3199C225.279 84.7767 225.204 85.1964 225.006 85.5792C224.809 85.962 224.506 86.2782 224.098 86.528C223.689 86.7777 223.186 86.9319 222.588 86.9906Z" fill="#5B5B5B"/>
<path d="M230.305 86.1566C229.656 86.2203 229.127 86.2139 228.719 86.1375C228.315 86.0606 228.001 85.9144 227.777 85.6988C227.552 85.4832 227.387 85.2012 227.281 84.8528C227.18 84.4994 227.105 84.0827 227.057 83.6029L226.713 80.1773L225.557 80.2906L225.495 79.1087L226.639 78.8777L226.573 76.7456L228.568 76.3961L228.797 78.6799L230.814 78.482L230.943 79.7623L228.926 79.9602L229.277 83.455C229.306 83.7503 229.358 83.9851 229.432 84.1596C229.511 84.3336 229.634 84.4543 229.801 84.5218C229.968 84.5892 230.202 84.6152 230.502 84.5998C230.675 84.5874 230.849 84.5774 231.022 84.5697C231.2 84.5569 231.376 84.5466 231.55 84.5389L231.625 85.9922C231.406 86.0183 231.185 86.0447 230.961 86.0713C230.743 86.102 230.524 86.1305 230.305 86.1566Z" fill="#5B5B5B"/>
<path d="M236.952 85.4416L236.824 84.1752L240.833 76.4159L236.281 76.8625L236.03 75.3565L243.243 74.6488L243.386 75.9976L239.587 83.6526L244.223 83.1978L244.438 84.7072L236.952 85.4416Z" fill="#5B5B5B"/>
<path d="M247.987 84.4848C247.291 84.5531 246.703 84.4244 246.223 84.0988C245.746 83.7682 245.471 83.236 245.397 82.5025C245.356 82.0872 245.412 81.73 245.566 81.4307C245.719 81.1268 245.941 80.8767 246.233 80.6803C246.524 80.484 246.86 80.3299 247.24 80.2181C247.62 80.1063 248.013 80.0304 248.419 79.9906L249.617 79.8731L249.558 79.2849C249.514 78.8512 249.367 78.5535 249.115 78.3919C248.863 78.2302 248.531 78.1695 248.12 78.2099C247.779 78.2433 247.4 78.3364 246.981 78.4893C246.567 78.6371 246.167 78.8255 245.779 79.0545L245.194 77.7351C245.518 77.531 245.853 77.3513 246.201 77.1961C246.548 77.0409 246.901 76.9154 247.259 76.8197C247.617 76.724 247.969 76.6592 248.315 76.6253C248.912 76.5667 249.458 76.6204 249.95 76.7863C250.447 76.9472 250.857 77.2448 251.179 77.6792C251.505 78.1084 251.706 78.6991 251.781 79.4511L252.232 83.9425L250.559 84.1067L250.257 83.2837C250.098 83.4857 249.914 83.6715 249.704 83.8411C249.495 84.0061 249.249 84.1466 248.969 84.2627C248.688 84.3741 248.36 84.4482 247.987 84.4848ZM248.549 83.1787C248.857 83.1485 249.122 83.0619 249.343 82.9191C249.569 82.7711 249.741 82.6121 249.861 82.442L249.707 80.9125L249.021 80.9799C248.685 81.0128 248.389 81.0768 248.135 81.1716C247.88 81.2665 247.687 81.4043 247.554 81.585C247.426 81.7607 247.376 81.9916 247.404 82.2776C247.441 82.6375 247.572 82.8855 247.798 83.0218C248.023 83.1534 248.273 83.2057 248.549 83.1787Z" fill="#5B5B5B"/>
<path d="M254.053 83.7639L252.982 73.1063L255.216 72.7474L255.744 78L255.809 79.0699L258.049 75.8101L260.409 75.5786L260.422 75.7101L258.002 79.2811L261.266 82.8466L261.287 83.0542L259.025 83.2761L256.42 80.289L256.018 80.7267L256.301 83.5433L254.053 83.7639Z" fill="#5B5B5B"/>
<path d="M263.151 79.5727L262.076 73.7307L261.923 72.2013L263.974 72L264.128 73.5294L264.293 79.4607L263.151 79.5727ZM264.039 82.8471C263.726 82.8778 263.458 82.7946 263.236 82.5974C263.013 82.3957 262.887 82.1518 262.858 81.8657C262.828 81.5705 262.903 81.3069 263.083 81.0749C263.262 80.843 263.508 80.7117 263.821 80.681C264.134 80.6503 264.399 80.7315 264.616 80.9245C264.839 81.117 264.964 81.3609 264.994 81.6562C265.023 81.9422 264.948 82.2058 264.769 82.447C264.595 82.6831 264.352 82.8164 264.039 82.8471Z" fill="#5B5B5B"/>
</svg>
