<svg width="269" height="99" viewBox="0 0 269 99" fill="none" xmlns="http://www.w3.org/2000/svg">
<path d="M1.50708 34.9644L0 23.812L40.9926 19.2908L41.5955 26.8262L22.9076 65.7089L45.8153 63.599L47.021 75.3542L6.02833 79.2726L4.82266 71.7372L22.9076 33.4573L1.50708 34.9644Z" fill="#FF6500"/>
<path d="M59.6804 18.3865L56.9677 73.5457L72.9428 72.9429V62.9961L78.0668 62.3933L79.8753 72.3401L95.8504 70.833L82.5881 16.578L86.8079 15.3724L73.2442 15.9752L78.3683 8.43978L71.4357 15.0709L69.6272 5.42561V15.0709L62.0918 9.94686L68.4215 16.578L55.4606 18.3865H59.6804Z" fill="#FF6500"/>
<path d="M101.276 13.2624L106.701 69.0245L120.567 68.1202L118.457 45.8154L122.978 45.2126L138.953 66.3117L153.722 64.8046L133.226 37.3758L146.488 8.43978L132.322 9.94686L121.169 32.8545H116.95L114.84 12.0568L101.276 13.2624Z" fill="#FF6500"/>
<path d="M162.765 7.23399L167.889 62.6946L182.658 61.4889L180.85 37.9785L190.194 37.3756L189.29 26.8261L179.946 27.4289L179.041 17.1807L189.29 16.2765L188.084 5.12408L162.765 7.23399Z" fill="#5B5B5B"/>
<path d="M207.073 3.31558L192.002 4.52125L196.825 59.9819L212.197 58.7762L207.073 3.31558Z" fill="#5B5B5B"/>
<path d="M211.594 14.1666L210.69 3.01416L243.846 0L244.75 11.4538L236.009 11.7552L239.626 56.3649L224.555 57.5705L220.637 13.5637L211.594 14.1666Z" fill="#5B5B5B"/>
<path d="M67.2158 69.0244L68.7229 68.4215V62.0918L69.6272 61.1875L69.9286 57.8719L70.5314 56.0634L72.9427 51.8436L74.7512 53.3507C75.0527 53.9535 75.6555 55.4606 75.9569 55.4606C76.2583 55.4606 78.0668 57.2691 78.0668 57.5705C78.0668 57.8117 79.0715 59.6804 79.5739 60.5847L81.9852 64.2017V65.4074L82.2866 66.0102L82.8895 66.3116V66.9144C83.3717 67.879 83.6933 68.1201 83.7937 68.1201C84.0349 67.879 86.7074 68.6225 88.0136 69.0244C88.9781 69.2655 89.4202 68.9239 89.5206 68.7229C90.0029 68.4818 89.7216 67.8187 89.5206 67.5173L87.4107 66.0102C85.9639 65.0457 84.9994 62.996 84.698 62.0918C83.7334 59.6804 81.6838 57.671 80.7796 56.9677C80.5384 54.7975 78.2678 50.437 77.1626 48.528C77.1626 48.528 77.174 47.9757 76.8612 47.6238C76.6863 47.4271 76.8009 47.2621 76.5597 47.021C76.3186 46.7798 76.2583 45.7148 76.2583 45.2125L77.1626 42.1983L78.6696 40.0884C79.1519 39.365 78.2678 37.5766 77.7654 36.7728V34.6629L78.3682 34.9643L79.8753 32.553L80.1767 30.7445C80.4179 30.0211 79.4734 29.0364 78.9711 28.6346C78.2477 28.1523 76.4593 28.8355 75.6555 29.2374L75.3541 30.4431L75.0527 31.9501L75.3541 32.8544V33.7586L74.1484 32.2516V30.1416L73.847 29.5388L73.5456 28.3331L73.2442 24.4147L72.9427 23.8119V21.4006H73.2442V20.1949L72.6413 19.8935H71.4357V21.0991L71.7371 21.4006L71.4357 24.4147L72.0385 26.2232V28.6346V34.6629L66.3116 48.528V57.5705C66.3116 57.5705 65.707 58.5341 65.4073 59.379C64.3383 62.3928 64.5031 67.5173 64.5031 67.5173L63.2974 69.0244L62.6946 69.6272L63.2974 70.5314L65.4073 71.1343L67.2158 69.0244Z" fill="white"/>
<path d="M6.42792 99L5.5 89.7634L7.68263 89.5493L8.47098 97.3966L12.6437 96.9872L12.6677 98.3878L6.42792 99Z" fill="#FF6500"/>
<path d="M15.6321 98.2123C14.9944 98.2749 14.4553 98.1569 14.0148 97.8585C13.5781 97.5554 13.3259 97.0676 13.2584 96.3952C13.2201 96.0145 13.2715 95.6871 13.4125 95.4127C13.5531 95.1341 13.7569 94.9048 14.0241 94.7249C14.2913 94.5449 14.5991 94.4037 14.9475 94.3012C15.2959 94.1987 15.6563 94.1291 16.0286 94.0926L17.1263 93.9849L17.0721 93.4457C17.0322 93.0481 16.8968 92.7753 16.6658 92.6271C16.4348 92.4789 16.131 92.4233 15.7544 92.4603C15.442 92.4909 15.094 92.5763 14.7105 92.7164C14.3308 92.8519 13.9635 93.0246 13.6086 93.2345L13.0722 92.0251C13.3689 91.838 13.6765 91.6733 13.995 91.531C14.3134 91.3887 14.6368 91.2737 14.9651 91.186C15.2934 91.0982 15.6159 91.0388 15.9326 91.0078C16.4804 90.954 16.9802 91.0032 17.432 91.1554C17.8876 91.3029 18.263 91.5757 18.5579 91.9738C18.8568 92.3673 19.0408 92.9087 19.1101 93.5981L19.5237 97.7152L17.9894 97.8657L17.7127 97.1113C17.567 97.2964 17.3983 97.4667 17.2065 97.6222C17.0142 97.7735 16.7895 97.9023 16.5322 98.0087C16.2745 98.1109 15.9745 98.1787 15.6321 98.2123ZM16.1471 97.0151C16.4296 96.9873 16.6723 96.908 16.8752 96.7771C17.082 96.6415 17.2403 96.4957 17.3499 96.3397L17.2091 94.9377L16.58 94.9995C16.2718 95.0297 16.0011 95.0883 15.7678 95.1752C15.5345 95.2622 15.3571 95.3885 15.2354 95.5542C15.1176 95.7152 15.0719 95.9268 15.0982 96.189C15.1314 96.5189 15.2515 96.7463 15.4585 96.8712C15.6651 96.9919 15.8946 97.0398 16.1471 97.0151Z" fill="#FF6500"/>
<path d="M25.359 97.1427L24.7861 91.4397L23.7911 91.5373L23.7225 90.5318L24.6726 90.3105L24.6204 89.7903C24.5596 89.1855 24.6197 88.7077 24.8005 88.3568C24.9809 88.0017 25.2466 87.7429 25.5977 87.5803C25.9483 87.4135 26.3461 87.3083 26.7912 87.2647C27.2577 87.2189 27.6259 87.2062 27.8959 87.2267C28.166 87.2472 28.3405 87.2643 28.4197 87.2779L28.4727 88.5155C28.308 88.5103 28.1543 88.5083 28.0118 88.5094C27.8736 88.5102 27.7489 88.516 27.6376 88.5269C27.4022 88.55 27.2083 88.5989 27.0559 88.6737C26.9031 88.7442 26.7952 88.853 26.7322 89.0001C26.6734 89.1468 26.6564 89.3428 26.681 89.5881L26.7301 90.0766L28.4441 89.9085L28.5607 91.0694L26.8467 91.2375L27.4197 96.9406L25.359 97.1427Z" fill="#FF6500"/>
<path d="M33.2876 96.4994C32.5729 96.5695 31.9437 96.4797 31.4 96.2298C30.8558 95.9756 30.4198 95.5935 30.092 95.0832C29.7641 94.573 29.5645 93.9626 29.4931 93.2521C29.4222 92.5459 29.4971 91.915 29.7179 91.3594C29.9383 90.7997 30.2903 90.3466 30.7742 90.0002C31.2576 89.6495 31.8566 89.4391 32.5713 89.369C33.286 89.2989 33.9131 89.389 34.4525 89.6393C34.9958 89.885 35.4312 90.2608 35.7586 90.7668C36.0899 91.2682 36.291 91.872 36.362 92.5783C36.4334 93.2888 36.357 93.9262 36.1327 94.4906C35.9128 95.0546 35.5613 95.514 35.0784 95.8689C34.5993 96.2191 34.0023 96.4293 33.2876 96.4994ZM33.1544 95.1736C33.454 95.1442 33.6961 95.0372 33.8807 94.8525C34.0648 94.6636 34.1915 94.397 34.2606 94.0529C34.334 93.7083 34.3455 93.2843 34.2949 92.781C34.2444 92.2778 34.1514 91.8683 34.0159 91.5528C33.8801 91.233 33.7014 91.0028 33.4798 90.8622C33.2625 90.7213 33.0041 90.6655 32.7045 90.6949C32.2551 90.739 31.931 90.9544 31.7322 91.3412C31.5376 91.7276 31.4782 92.2972 31.5538 93.05C31.6048 93.5575 31.6984 93.9732 31.8347 94.2973C31.9752 94.6209 32.1565 94.8551 32.3785 94.9999C32.6005 95.1446 32.8591 95.2025 33.1544 95.1736Z" fill="#FF6500"/>
<path d="M38.1338 95.8895L37.4443 89.0255L39.2225 88.851L39.4565 90.0196C39.6276 89.5288 39.8628 89.1811 40.1621 88.9767C40.4614 88.7722 40.7908 88.6523 41.1503 88.6171C41.2701 88.6053 41.3884 88.6001 41.5052 88.6015C41.6221 88.6028 41.7391 88.6063 41.8564 88.6119L41.8777 90.1152C41.7819 90.1076 41.6909 90.1058 41.6049 90.11C41.5185 90.1099 41.4453 90.1128 41.3854 90.1187C41.073 90.1493 40.79 90.2369 40.5366 90.3813C40.2827 90.5216 40.0881 90.7136 39.9527 90.9575C39.8216 91.201 39.7726 91.4877 39.8057 91.8176L40.1945 95.6873L38.1338 95.8895Z" fill="#FF6500"/>
<path d="M43.661 95.3472L42.9714 88.4832L44.7304 88.3107L44.9703 89.4723C45.1152 89.0652 45.3446 88.7245 45.6585 88.4503C45.9723 88.176 46.3882 88.0135 46.906 87.9627C47.2056 87.9333 47.4928 87.9521 47.7674 88.0191C48.046 88.0815 48.3001 88.2018 48.5298 88.38C48.7637 88.5577 48.9612 88.8032 49.1223 89.1162C49.2664 88.7006 49.4991 88.3489 49.8202 88.0612C50.1457 87.773 50.5823 87.602 51.1301 87.5483C51.8919 87.4736 52.4934 87.6537 52.9347 88.0888C53.3799 88.5191 53.645 89.1573 53.7299 90.0031L54.1633 94.3169L52.1026 94.519L51.7018 90.5288C51.6631 90.1439 51.5992 89.8299 51.5099 89.5867C51.4249 89.343 51.308 89.1687 51.1591 89.0637C51.0103 88.9588 50.8182 88.9178 50.5828 88.9409C50.3774 88.9611 50.1873 89.048 50.0126 89.2018C49.8422 89.3552 49.7111 89.556 49.6193 89.8042C49.5318 90.0519 49.5034 90.3281 49.534 90.6326L49.9457 94.7306L47.8786 94.9334L47.4841 91.0066C47.4395 90.5626 47.3702 90.217 47.2763 89.97C47.1823 89.723 47.0594 89.5535 46.9075 89.4616C46.7557 89.3698 46.5706 89.3345 46.3524 89.3559C46.1298 89.3778 45.9368 89.4565 45.7732 89.5921C45.6139 89.7273 45.4929 89.9207 45.4101 90.1723C45.3273 90.4238 45.2937 90.7346 45.3093 91.1047L45.7152 95.1457L43.661 95.3472Z" fill="#FF6500"/>
<path d="M59.2089 93.95C58.4771 94.0218 57.8229 93.9408 57.2462 93.7069C56.6695 93.4731 56.2024 93.1046 55.8451 92.6016C55.4872 92.0943 55.2718 91.4769 55.1987 90.7495C55.1244 90.0094 55.204 89.3609 55.4376 88.8042C55.6708 88.2431 56.0298 87.7937 56.5144 87.4557C57.0034 87.1173 57.5881 86.9147 58.2686 86.848C58.9704 86.7791 59.5515 86.863 60.0118 87.0998C60.4759 87.3318 60.8377 87.685 61.0971 88.1592C61.3561 88.6292 61.5269 89.1891 61.6094 89.8387C61.623 89.974 61.6293 90.1015 61.6284 90.2212C61.627 90.3366 61.6238 90.4331 61.6186 90.5104C61.6177 90.5874 61.6159 90.6346 61.6133 90.6519L57.2994 91.0751C57.3753 91.4435 57.5073 91.7466 57.6955 91.9844C57.8879 92.2218 58.1233 92.393 58.4018 92.4981C58.6803 92.6031 58.9844 92.6395 59.3139 92.6072C59.6777 92.5715 60.0105 92.4855 60.3122 92.3491C60.614 92.2127 60.8915 92.0488 61.1445 91.8574L61.2536 91.8467L61.8037 92.869C61.554 93.137 61.1993 93.3704 60.7395 93.5692C60.284 93.7676 59.7738 93.8946 59.2089 93.95ZM57.1564 89.9744L59.859 89.7093C59.7949 89.1134 59.6469 88.6944 59.4151 88.4524C59.1829 88.2061 58.87 88.1023 58.4762 88.1409C58.0697 88.1808 57.7407 88.3476 57.4893 88.6413C57.2417 88.9304 57.1308 89.3748 57.1564 89.9744Z" fill="#FF6500"/>
<path d="M64.0092 95.5291L63.8638 91.6291L65.6099 91.4578L65.7099 92.4538C65.6734 92.6495 65.6393 92.8472 65.6074 93.0468C65.5752 93.2421 65.543 93.4375 65.5107 93.6328C65.4789 93.8324 65.4469 94.0299 65.4147 94.2252C65.3829 94.4248 65.3487 94.6225 65.3122 94.8183C65.2804 95.0179 65.2483 95.2153 65.2161 95.4107L64.0092 95.5291Z" fill="#FF6500"/>
<path d="M74.8147 92.419C74.0957 92.4895 73.4586 92.4068 72.9033 92.1709C72.3519 91.9303 71.906 91.5576 71.5658 91.0529C71.2298 90.5477 71.025 89.9293 70.9515 89.1976C70.878 88.466 70.9581 87.8218 71.1917 87.265C71.4249 86.704 71.7903 86.2539 72.2878 85.9146C72.7849 85.5712 73.3929 85.3642 74.1119 85.2937C74.5741 85.2483 74.9804 85.2704 75.3308 85.3598C75.6812 85.4493 75.9884 85.6028 76.2522 85.8204C76.5157 86.0337 76.7466 86.31 76.9449 86.6493L75.8743 87.3501L75.7909 87.3583C75.5989 87.0825 75.383 86.8901 75.143 86.7813C74.903 86.6724 74.6272 86.6375 74.3156 86.6766C74.0203 86.7056 73.7646 86.8054 73.5483 86.9761C73.3317 87.1426 73.1732 87.3931 73.0728 87.7275C72.9763 88.0573 72.9539 88.4801 73.0058 88.9961C73.0584 89.5205 73.1649 89.935 73.3252 90.2396C73.4854 90.5442 73.6862 90.7573 73.9275 90.8788C74.1687 91.0004 74.4394 91.0485 74.7394 91.0234C75.0526 91.0012 75.3142 90.9157 75.524 90.767C75.738 90.6179 75.9136 90.3871 76.0508 90.0747L76.1343 90.0665L77.3227 90.5393C77.1958 90.9105 77.0246 91.2284 76.8092 91.493C76.5933 91.7533 76.3203 91.9616 75.9903 92.1179C75.6645 92.2737 75.2727 92.374 74.8147 92.419Z" fill="#FF6500"/>
<path d="M78.0807 85.3719L77.9977 82.0937L79.7695 81.9198L79.3261 85.2498L78.0807 85.3719Z" fill="#FF6500"/>
<path d="M85.5802 91.3628C84.8484 91.4346 84.1942 91.3536 83.6175 91.1197C83.0408 90.8859 82.5737 90.5174 82.2163 90.0144C81.8585 89.5071 81.6431 88.8897 81.57 88.1623C81.4957 87.4222 81.5753 86.7738 81.8089 86.217C82.0421 85.656 82.4011 85.2065 82.8857 84.8685C83.3747 84.5301 83.9594 84.3276 84.6399 84.2608C85.3417 84.1919 85.9228 84.2759 86.3831 84.5126C86.8472 84.7447 87.209 85.0978 87.4684 85.5721C87.7274 86.0421 87.8982 86.6019 87.9807 87.2515C87.9943 87.3868 88.0006 87.5143 87.9997 87.634C87.9983 87.7495 87.9951 87.8459 87.9899 87.9233C87.989 88.0002 87.9872 88.0474 87.9846 88.0647L83.6707 88.4879C83.7466 88.8563 83.8786 89.1594 84.0668 89.3972C84.2592 89.6346 84.4946 89.8058 84.7731 89.9109C85.0516 90.016 85.3557 90.0523 85.6852 90.02C86.049 89.9843 86.3817 89.8983 86.6835 89.7619C86.9853 89.6255 87.2628 89.4616 87.5158 89.2703L87.6249 89.2595L88.1749 90.2818C87.9253 90.5498 87.5706 90.7832 87.1108 90.982C86.6553 91.1805 86.1451 91.3074 85.5802 91.3628ZM83.5277 87.3873L86.2303 87.1221C86.1662 86.5262 86.0182 86.1073 85.7864 85.8652C85.5542 85.6189 85.2413 85.5151 84.8475 85.5537C84.441 85.5936 84.112 85.7604 83.8606 86.0541C83.613 86.3432 83.5021 86.7876 83.5277 87.3873Z" fill="#FF6500"/>
<path d="M92.417 90.6921C91.7451 90.758 91.1283 90.7053 90.5665 90.5341C90.0086 90.3582 89.5633 90.0559 89.2307 89.6273L90.1056 88.7215L90.2726 88.7051C90.4919 88.9954 90.7731 89.192 91.1162 89.295C91.4636 89.3976 91.7807 89.4348 92.0674 89.4067C92.3713 89.3769 92.5937 89.2889 92.7346 89.1426C92.8798 88.996 92.9409 88.8085 92.9179 88.5801C92.9082 88.4828 92.88 88.3959 92.8334 88.3193C92.7864 88.2385 92.7079 88.1672 92.598 88.1054C92.488 88.0436 92.3314 87.9906 92.1282 87.9465L91.1899 87.7054C90.7107 87.5816 90.3246 87.438 90.0316 87.2745C89.7386 87.1111 89.5177 86.9128 89.3689 86.6797C89.224 86.4419 89.1352 86.1602 89.1025 85.8346C89.0409 85.2213 89.2319 84.7136 89.6756 84.3113C90.1188 83.9048 90.7491 83.6614 91.5665 83.5813C91.9517 83.5435 92.3197 83.5501 92.6706 83.6011C93.0253 83.6474 93.3487 83.7481 93.6409 83.9031C93.9369 84.0534 94.1875 84.268 94.3927 84.5468L93.5467 85.4178L93.4568 85.4266C93.2845 85.2171 93.0728 85.0671 92.8217 84.9764C92.5706 84.8857 92.3123 84.8534 92.047 84.8794C91.8587 84.8979 91.7007 84.939 91.5732 85.0028C91.4452 85.0623 91.3516 85.142 91.2925 85.2417C91.2372 85.3369 91.2162 85.45 91.2293 85.5811C91.2425 85.7122 91.2972 85.8264 91.3934 85.9237C91.4935 86.0164 91.7033 86.1047 92.0229 86.1887L93.1807 86.5492C93.576 86.6556 93.8904 86.7956 94.124 86.9691C94.3571 87.1385 94.5279 87.3331 94.6364 87.5531C94.7488 87.7684 94.8173 87.9987 94.842 88.244C94.884 88.6627 94.8146 89.0475 94.6338 89.3984C94.4529 89.7492 94.1752 90.0391 93.8006 90.2681C93.426 90.497 92.9648 90.6383 92.417 90.6921Z" fill="#FF6500"/>
<path d="M99.4907 89.9277C98.8958 89.986 98.4112 89.9802 98.0368 89.9101C97.6667 89.8397 97.3788 89.7056 97.1731 89.508C96.9674 89.3104 96.8161 89.0519 96.7192 88.7325C96.6261 88.4085 96.5575 88.0266 96.5133 87.5868L96.1978 84.4466L95.1386 84.5505L95.0816 83.467L96.13 83.2553L96.0698 81.3008L97.8982 80.9805L98.1085 83.074L99.9573 82.8926L100.075 84.0662L98.2264 84.2476L98.5482 87.4512C98.5754 87.7219 98.623 87.9371 98.6909 88.097C98.7631 88.2565 98.8758 88.3672 99.029 88.429C99.1821 88.4909 99.3963 88.5147 99.6715 88.5005C99.8302 88.4892 99.9892 88.48 100.148 88.473C100.311 88.4612 100.473 88.4518 100.632 88.4448L100.701 89.7769C100.5 89.8009 100.297 89.825 100.092 89.8494C99.8919 89.8776 99.6914 89.9037 99.4907 89.9277Z" fill="#FF6500"/>
<path d="M106.122 92.2432L105.131 82.385L106.942 82.2074L107.121 83.343C107.244 82.9379 107.459 82.6051 107.766 82.3444C108.072 82.0794 108.475 81.9224 108.976 81.8733C109.597 81.8124 110.126 81.9164 110.563 82.1852C111.001 82.4498 111.346 82.8387 111.601 83.3518C111.855 83.8608 112.017 84.4536 112.084 85.1302C112.155 85.8323 112.11 86.4645 111.951 87.0268C111.796 87.5887 111.522 88.0448 111.129 88.3951C110.736 88.7412 110.227 88.9448 109.602 89.0061C109.178 89.0477 108.814 89.0088 108.508 88.8893C108.202 88.7698 107.951 88.6151 107.754 88.4251L107.887 89.4179L108.15 92.0442L106.122 92.2432ZM108.969 87.7358C109.148 87.7181 109.312 87.6679 109.459 87.5851C109.606 87.4981 109.729 87.3644 109.827 87.1839C109.93 86.9987 109.998 86.755 110.033 86.4526C110.071 86.1499 110.068 85.7743 110.023 85.326C109.969 84.7889 109.879 84.3643 109.753 84.0521C109.626 83.7399 109.466 83.5229 109.272 83.4009C109.078 83.2748 108.859 83.2237 108.615 83.2476C108.367 83.272 108.156 83.3418 107.981 83.4571C107.811 83.572 107.677 83.7218 107.579 83.9066C107.481 84.0871 107.418 84.2983 107.39 84.5401L107.664 87.268C107.814 87.4241 107.993 87.5496 108.201 87.6445C108.413 87.7347 108.669 87.7652 108.969 87.7358Z" fill="#FF6500"/>
<path d="M115.738 88.3914C115.1 88.4539 114.561 88.336 114.12 88.0375C113.684 87.7344 113.432 87.2467 113.364 86.5742C113.326 86.1936 113.377 85.8661 113.518 85.5918C113.659 85.3132 113.863 85.0839 114.13 84.9039C114.397 84.724 114.705 84.5827 115.053 84.4802C115.402 84.3777 115.762 84.3082 116.134 84.2717L117.232 84.164L117.178 83.6248C117.138 83.2272 117.002 82.9544 116.771 82.8062C116.54 82.658 116.237 82.6024 115.86 82.6393C115.548 82.67 115.2 82.7554 114.816 82.8955C114.436 83.031 114.069 83.2037 113.714 83.4136L113.178 82.2042C113.475 82.0171 113.782 81.8523 114.101 81.7101C114.419 81.5678 114.742 81.4528 115.071 81.365C115.399 81.2773 115.722 81.2179 116.038 81.1868C116.586 81.1331 117.086 81.1823 117.538 81.3344C117.993 81.4819 118.369 81.7547 118.664 82.1529C118.962 82.5464 119.146 83.0878 119.216 83.7772L119.629 87.8943L118.095 88.0448L117.818 87.2904C117.673 87.4755 117.504 87.6458 117.312 87.8013C117.12 87.9526 116.895 88.0814 116.638 88.1878C116.38 88.2899 116.08 88.3578 115.738 88.3914ZM116.253 87.1941C116.535 87.1664 116.778 87.0871 116.981 86.9561C117.188 86.8205 117.346 86.6747 117.456 86.5188L117.315 85.1168L116.686 85.1785C116.377 85.2087 116.107 85.2673 115.873 85.3543C115.64 85.4412 115.463 85.5676 115.341 85.7332C115.223 85.8943 115.178 86.1059 115.204 86.3681C115.237 86.698 115.357 86.9254 115.564 87.0503C115.771 87.1709 116 87.2189 116.253 87.1941Z" fill="#FF6500"/>
<path d="M123.821 87.6112C123.149 87.6771 122.532 87.6244 121.971 87.4532C121.413 87.2773 120.968 86.975 120.635 86.5464L121.51 85.6406L121.677 85.6242C121.896 85.9144 122.177 86.1111 122.52 86.2141C122.868 86.3167 123.185 86.3539 123.472 86.3258C123.775 86.2959 123.998 86.2079 124.139 86.0617C124.284 85.9151 124.345 85.7276 124.322 85.4992C124.312 85.4019 124.284 85.315 124.238 85.2384C124.191 85.1576 124.112 85.0863 124.002 85.0245C123.892 84.9627 123.736 84.9097 123.532 84.8656L122.594 84.6245C122.115 84.5007 121.729 84.357 121.436 84.1936C121.143 84.0301 120.922 83.8319 120.773 83.5988C120.628 83.361 120.539 83.0793 120.507 82.7536C120.445 82.1404 120.636 81.6326 121.08 81.2304C121.523 80.8239 122.153 80.5805 122.971 80.5003C123.356 80.4625 123.724 80.4691 124.075 80.5201C124.429 80.5665 124.753 80.6671 125.045 80.8221C125.341 80.9725 125.592 81.187 125.797 81.4659L124.951 82.3368L124.861 82.3457C124.689 82.1362 124.477 81.9862 124.226 81.8955C123.975 81.8048 123.717 81.7725 123.451 81.7985C123.263 81.817 123.105 81.8581 122.977 81.9219C122.849 81.9814 122.756 82.0611 122.697 82.1608C122.641 82.2559 122.62 82.369 122.634 82.5001C122.647 82.6312 122.701 82.7455 122.798 82.8428C122.898 82.9355 123.107 83.0238 123.427 83.1078L124.585 83.4682C124.98 83.5747 125.295 83.7147 125.528 83.8882C125.761 84.0575 125.932 84.2522 126.041 84.4722C126.153 84.6875 126.221 84.9178 126.246 85.1631C126.288 85.5818 126.219 85.9666 126.038 86.3174C125.857 86.6683 125.579 86.9582 125.205 87.1871C124.83 87.4161 124.369 87.5574 123.821 87.6112Z" fill="#FF6500"/>
<path d="M134.144 86.5985C133.472 86.6644 132.855 86.6117 132.293 86.4405C131.735 86.2646 131.29 85.9623 130.957 85.5337L131.832 84.6279L131.999 84.6115C132.219 84.9017 132.5 85.0984 132.843 85.2014C133.19 85.304 133.507 85.3412 133.794 85.3131C134.098 85.2832 134.32 85.1952 134.461 85.049C134.606 84.9024 134.668 84.7149 134.645 84.4865C134.635 84.3892 134.607 84.3023 134.56 84.2257C134.513 84.1449 134.435 84.0736 134.325 84.0118C134.215 83.95 134.058 83.897 133.855 83.8529L132.917 83.6118C132.437 83.488 132.051 83.3443 131.758 83.1809C131.465 83.0174 131.244 82.8192 131.096 82.586C130.951 82.3483 130.862 82.0666 130.829 81.7409C130.768 81.1277 130.959 80.6199 131.402 80.2177C131.845 79.8112 132.476 79.5678 133.293 79.4876C133.678 79.4498 134.046 79.4564 134.397 79.5074C134.752 79.5538 135.075 79.6544 135.368 79.8094C135.664 79.9598 135.914 80.1743 136.119 80.4532L135.273 81.3241L135.184 81.333C135.011 81.1235 134.8 80.9734 134.548 80.8828C134.297 80.7921 134.039 80.7598 133.774 80.7858C133.585 80.8043 133.427 80.8454 133.3 80.9092C133.172 80.9687 133.078 81.0484 133.019 81.1481C132.964 81.2432 132.943 81.3563 132.956 81.4874C132.969 81.6185 133.024 81.7328 133.12 81.8301C133.22 81.9228 133.43 82.0111 133.75 82.0951L134.907 82.4555C135.303 82.562 135.617 82.702 135.851 82.8755C136.084 83.0448 136.255 83.2395 136.363 83.4594C136.476 83.6748 136.544 83.9051 136.569 84.1504C136.611 84.5691 136.541 84.9539 136.361 85.3047C136.18 85.6556 135.902 85.9455 135.527 86.1744C135.153 86.4034 134.692 86.5447 134.144 86.5985Z" fill="#FF6500"/>
<path d="M141.212 85.9114C140.498 85.9815 139.868 85.8916 139.325 85.6417C138.78 85.3876 138.344 85.0055 138.017 84.4952C137.689 83.985 137.489 83.3746 137.418 82.6641C137.347 81.9578 137.422 81.3269 137.642 80.7714C137.863 80.2117 138.215 79.7586 138.699 79.4122C139.182 79.0615 139.781 78.8511 140.496 78.781C141.211 78.7109 141.838 78.801 142.377 79.0513C142.92 79.2969 143.356 79.6728 143.683 80.1788C144.015 80.6801 144.216 81.284 144.287 81.9902C144.358 82.7007 144.282 83.3382 144.057 83.9026C143.837 84.4666 143.486 84.926 143.003 85.2809C142.524 85.6311 141.927 85.8413 141.212 85.9114ZM141.079 84.5856C141.379 84.5562 141.621 84.4491 141.805 84.2645C141.989 84.0756 142.116 83.809 142.185 83.4648C142.259 83.1202 142.27 82.6963 142.22 82.193C142.169 81.6898 142.076 81.2803 141.941 80.9648C141.805 80.645 141.626 80.4148 141.404 80.2742C141.187 80.1333 140.929 80.0775 140.629 80.1068C140.18 80.1509 139.856 80.3664 139.657 80.7532C139.462 81.1396 139.403 81.7091 139.478 82.4619C139.529 82.9694 139.623 83.3852 139.759 83.7092C139.9 84.0329 140.081 84.267 140.303 84.4118C140.525 84.5566 140.784 84.6145 141.079 84.5856Z" fill="#FF6500"/>
<path d="M146.058 85.3014L145.369 78.4375L147.147 78.263L147.381 79.4316C147.552 78.9408 147.787 78.5931 148.087 78.3886C148.386 78.1842 148.715 78.0643 149.075 78.029C149.195 78.0173 149.313 78.0121 149.43 78.0134C149.547 78.0148 149.664 78.0183 149.781 78.0238L149.802 79.5272C149.706 79.5195 149.616 79.5178 149.53 79.5219C149.443 79.5219 149.37 79.5248 149.31 79.5307C148.998 79.5613 148.715 79.6489 148.461 79.7933C148.207 79.9335 148.013 80.1256 147.877 80.3695C147.746 80.613 147.697 80.8997 147.73 81.2296L148.119 85.0993L146.058 85.3014Z" fill="#FF6500"/>
<path d="M154.712 84.5806C153.993 84.6511 153.356 84.5684 152.8 84.3325C152.249 84.0919 151.803 83.7192 151.463 83.2145C151.127 82.7093 150.922 82.0909 150.849 81.3593C150.775 80.6276 150.855 79.9834 151.089 79.4266C151.322 78.8656 151.687 78.4155 152.185 78.0763C152.682 77.7328 153.29 77.5258 154.009 77.4553C154.471 77.4099 154.877 77.432 155.228 77.5215C155.578 77.611 155.885 77.7645 156.149 77.982C156.413 78.1954 156.644 78.4717 156.842 78.811L155.771 79.5118L155.688 79.52C155.496 79.2441 155.28 79.0517 155.04 78.9429C154.8 78.834 154.524 78.7992 154.213 78.8383C153.917 78.8673 153.662 78.9671 153.445 79.1378C153.229 79.3042 153.07 79.5547 152.97 79.8891C152.873 80.2189 152.851 80.6418 152.903 81.1577C152.956 81.6822 153.062 82.0967 153.222 82.4013C153.382 82.7059 153.583 82.9189 153.825 83.0405C154.066 83.162 154.336 83.2102 154.636 83.185C154.95 83.1628 155.211 83.0774 155.421 82.9287C155.635 82.7796 155.811 82.5488 155.948 82.2364L156.031 82.2282L157.22 82.701C157.093 83.0722 156.922 83.3901 156.706 83.6546C156.49 83.915 156.217 84.1233 155.887 84.2795C155.562 84.4353 155.17 84.5357 154.712 84.5806Z" fill="#FF6500"/>
<path d="M158.763 84.0551L158.073 77.1911L160.134 76.989L160.823 83.8529L158.763 84.0551ZM158.956 75.7848C158.605 75.8192 158.318 75.7535 158.093 75.5875C157.873 75.417 157.746 75.1667 157.713 74.8368C157.682 74.5239 157.758 74.2666 157.94 74.065C158.128 73.863 158.397 73.7448 158.748 73.7104C159.103 73.6755 159.39 73.7392 159.61 73.9013C159.829 74.0634 159.954 74.3009 159.986 74.6139C160.019 74.9438 159.945 75.2137 159.763 75.4238C159.58 75.6296 159.311 75.7499 158.956 75.7848Z" fill="#FF6500"/>
<path d="M165.901 83.4829C165.169 83.5547 164.515 83.4737 163.938 83.2398C163.362 83.006 162.894 82.6375 162.537 82.1345C162.179 81.6272 161.964 81.0098 161.891 80.2824C161.816 79.5423 161.896 78.8938 162.13 78.3371C162.363 77.776 162.722 77.3266 163.206 76.9886C163.695 76.6502 164.28 76.4476 164.961 76.3809C165.662 76.312 166.244 76.3959 166.704 76.6327C167.168 76.8647 167.53 77.2179 167.789 77.6921C168.048 78.1621 168.219 78.722 168.301 79.3716C168.315 79.5069 168.321 79.6344 168.32 79.7541C168.319 79.8695 168.316 79.966 168.311 80.0433C168.31 80.1203 168.308 80.1675 168.305 80.1848L163.991 80.608C164.067 80.9764 164.199 81.2795 164.388 81.5173C164.58 81.7547 164.815 81.9259 165.094 82.031C165.372 82.136 165.676 82.1724 166.006 82.1401C166.37 82.1044 166.702 82.0184 167.004 81.882C167.306 81.7456 167.584 81.5817 167.837 81.3903L167.946 81.3796L168.496 82.4019C168.246 82.6699 167.891 82.9033 167.432 83.1021C166.976 83.3005 166.466 83.4275 165.901 83.4829ZM163.848 79.5073L166.551 79.2422C166.487 78.6463 166.339 78.2273 166.107 77.9853C165.875 77.739 165.562 77.6352 165.168 77.6738C164.762 77.7137 164.433 77.8805 164.181 78.1742C163.934 78.4633 163.823 78.9077 163.848 79.5073Z" fill="#FF6500"/>
<path d="M170.144 82.9385L169.455 76.0745L171.233 75.9L171.467 77.0687C171.638 76.5778 171.873 76.2301 172.173 76.0257C172.472 75.8212 172.801 75.7013 173.161 75.6661C173.281 75.6543 173.399 75.6491 173.516 75.6505C173.633 75.6518 173.75 75.6553 173.867 75.6609L173.888 77.1642C173.792 77.1566 173.701 77.1548 173.615 77.159C173.529 77.1589 173.456 77.1618 173.396 77.1677C173.084 77.1984 172.801 77.2859 172.547 77.4304C172.293 77.5706 172.099 77.7626 171.963 78.0065C171.832 78.25 171.783 78.5367 171.816 78.8666L172.205 82.7363L170.144 82.9385Z" fill="#FF6500"/>
<path d="M175.631 84.5783L175.486 80.6783L177.232 80.507L177.332 81.503C177.296 81.6988 177.261 81.8964 177.23 82.096C177.197 82.2914 177.165 82.4867 177.133 82.6821C177.101 82.8816 177.069 83.0791 177.037 83.2745C177.005 83.474 176.971 83.6717 176.934 83.8675C176.903 84.0671 176.871 84.2645 176.838 84.4599L175.631 84.5783Z" fill="#FF6500"/>
<path d="M186.437 81.4682C185.718 81.5387 185.081 81.456 184.526 81.2201C183.974 80.9795 183.528 80.6068 183.188 80.1021C182.852 79.5969 182.647 78.9785 182.574 78.2469C182.5 77.5152 182.58 76.871 182.814 76.3142C183.047 75.7532 183.412 75.3031 183.91 74.9639C184.407 74.6204 185.015 74.4134 185.734 74.3429C186.196 74.2975 186.603 74.3196 186.953 74.4091C187.303 74.4985 187.611 74.6521 187.874 74.8696C188.138 75.0829 188.369 75.3592 188.567 75.6985L187.497 76.3994L187.413 76.4075C187.221 76.1317 187.005 75.9393 186.765 75.8305C186.525 75.7216 186.249 75.6868 185.938 75.7259C185.643 75.7548 185.387 75.8547 185.171 76.0254C184.954 76.1918 184.795 76.4423 184.695 76.7767C184.598 77.1065 184.576 77.5294 184.628 78.0453C184.681 78.5697 184.787 78.9842 184.947 79.2888C185.108 79.5934 185.308 79.8065 185.55 79.928C185.791 80.0496 186.062 80.0978 186.362 80.0726C186.675 80.0504 186.936 79.965 187.146 79.8163C187.36 79.6671 187.536 79.4364 187.673 79.1239L187.756 79.1158L188.945 79.5885C188.818 79.9597 188.647 80.2776 188.431 80.5422C188.216 80.8026 187.943 81.0108 187.612 81.1671C187.287 81.3229 186.895 81.4233 186.437 81.4682Z" fill="#5B5B5B"/>
<path d="M189.703 74.4212L189.62 71.1429L191.392 70.9691L190.948 74.299L189.703 74.4212Z" fill="#5B5B5B"/>
<path d="M197.202 80.412C196.471 80.4838 195.816 80.4028 195.24 80.169C194.663 79.9351 194.196 79.5667 193.839 79.0636C193.481 78.5563 193.265 77.9389 193.192 77.2115C193.118 76.4714 193.198 75.823 193.431 75.2662C193.664 74.7052 194.023 74.2557 194.508 73.9177C194.997 73.5793 195.582 73.3768 196.262 73.31C196.964 73.2412 197.545 73.3251 198.005 73.5618C198.469 73.7939 198.831 74.147 199.091 74.6213C199.35 75.0913 199.52 75.6511 199.603 76.3007C199.617 76.4361 199.623 76.5636 199.622 76.6832C199.621 76.7987 199.617 76.8951 199.612 76.9725C199.611 77.0495 199.609 77.0966 199.607 77.1139L195.293 77.5372C195.369 77.9055 195.501 78.2086 195.689 78.4464C195.881 78.6838 196.117 78.855 196.395 78.9601C196.674 79.0652 196.978 79.1016 197.307 79.0692C197.671 79.0335 198.004 78.9475 198.306 78.8111C198.608 78.6747 198.885 78.5109 199.138 78.3195L199.247 78.3088L199.797 79.3311C199.547 79.599 199.193 79.8324 198.733 80.0313C198.278 80.2297 197.767 80.3566 197.202 80.412ZM195.15 76.4365L197.853 76.1713C197.788 75.5755 197.64 75.1565 197.409 74.9144C197.176 74.6681 196.863 74.5643 196.47 74.6029C196.063 74.6428 195.734 74.8096 195.483 75.1034C195.235 75.3924 195.124 75.8368 195.15 76.4365Z" fill="#5B5B5B"/>
<path d="M204.039 79.7413C203.367 79.8072 202.75 79.7546 202.189 79.5833C201.631 79.4074 201.186 79.1052 200.853 78.6765L201.728 77.7707L201.895 77.7543C202.114 78.0446 202.395 78.2412 202.738 78.3442C203.086 78.4468 203.403 78.484 203.69 78.4559C203.994 78.4261 204.216 78.3381 204.357 78.1919C204.502 78.0452 204.563 77.8577 204.54 77.6293C204.53 77.5321 204.502 77.4451 204.456 77.3686C204.409 77.2878 204.33 77.2165 204.22 77.1546C204.11 77.0928 203.954 77.0398 203.75 76.9957L202.812 76.7546C202.333 76.6308 201.947 76.4872 201.654 76.3237C201.361 76.1603 201.14 75.962 200.991 75.7289C200.846 75.4911 200.757 75.2094 200.725 74.8838C200.663 74.2706 200.854 73.7628 201.298 73.3605C201.741 72.954 202.371 72.7107 203.189 72.6305C203.574 72.5927 203.942 72.5993 204.293 72.6503C204.647 72.6966 204.971 72.7973 205.263 72.9523C205.559 73.1026 205.81 73.3172 206.015 73.596L205.169 74.467L205.079 74.4758C204.907 74.2664 204.695 74.1163 204.444 74.0256C204.193 73.935 203.935 73.9026 203.669 73.9287C203.481 73.9471 203.323 73.9883 203.195 74.052C203.067 74.1116 202.974 74.1912 202.915 74.291C202.859 74.3861 202.838 74.4992 202.852 74.6303C202.865 74.7614 202.919 74.8756 203.016 74.9729C203.116 75.0656 203.326 75.1539 203.645 75.2379L204.803 75.5984C205.198 75.7048 205.513 75.8448 205.746 76.0184C205.979 76.1877 206.15 76.3823 206.259 76.6023C206.371 76.8176 206.44 77.0479 206.464 77.2932C206.506 77.7119 206.437 78.0967 206.256 78.4476C206.075 78.7984 205.797 79.0883 205.423 79.3173C205.048 79.5462 204.587 79.6876 204.039 79.7413Z" fill="#5B5B5B"/>
<path d="M211.113 78.9769C210.518 79.0352 210.033 79.0294 209.659 78.9594C209.289 78.8889 209.001 78.7548 208.795 78.5572C208.59 78.3596 208.438 78.1011 208.341 77.7817C208.248 77.4577 208.18 77.0758 208.136 76.636L207.82 73.4958L206.761 73.5997L206.704 72.5162L207.752 72.3045L207.692 70.3501L209.52 70.0298L209.731 72.1232L211.58 71.9418L211.697 73.1154L209.849 73.2968L210.17 76.5004C210.198 76.7711 210.245 76.9864 210.313 77.1463C210.385 77.3057 210.498 77.4164 210.651 77.4783C210.804 77.5401 211.019 77.5639 211.294 77.5498C211.452 77.5384 211.611 77.5293 211.771 77.5222C211.934 77.5105 212.095 77.5011 212.254 77.494L212.323 78.8261C212.122 78.8501 211.919 78.8743 211.714 78.8986C211.514 78.9268 211.314 78.9529 211.113 78.9769Z" fill="#5B5B5B"/>
<path d="M217.206 78.3215L217.089 77.1606L220.763 70.0479L216.591 70.4572L216.361 69.0767L222.973 68.4281L223.104 69.6645L219.621 76.6815L223.871 76.2646L224.068 77.6482L217.206 78.3215Z" fill="#5B5B5B"/>
<path d="M227.321 77.4444C226.684 77.5069 226.145 77.389 225.704 77.0905C225.267 76.7874 225.015 76.2997 224.948 75.6272C224.909 75.2466 224.961 74.9191 225.102 74.6448C225.242 74.3662 225.446 74.1369 225.713 73.9569C225.981 73.777 226.288 73.6357 226.637 73.5332C226.985 73.4307 227.346 73.3612 227.718 73.3247L228.816 73.217L228.762 72.6778C228.722 72.2802 228.586 72.0073 228.355 71.8592C228.124 71.711 227.82 71.6554 227.444 71.6923C227.131 71.723 226.783 71.8084 226.4 71.9485C226.02 72.084 225.653 72.2567 225.298 72.4666L224.762 71.2572C225.058 71.0701 225.366 70.9053 225.684 70.7631C226.003 70.6208 226.326 70.5058 226.654 70.418C226.983 70.3303 227.305 70.2709 227.622 70.2398C228.17 70.1861 228.67 70.2353 229.121 70.3874C229.577 70.5349 229.952 70.8077 230.247 71.2059C230.546 71.5994 230.73 72.1408 230.799 72.8302L231.213 76.9473L229.679 77.0978L229.402 76.3434C229.256 76.5285 229.088 76.6988 228.896 76.8543C228.704 77.0056 228.479 77.1344 228.222 77.2408C227.964 77.3429 227.664 77.4108 227.321 77.4444ZM227.836 76.2471C228.119 76.2194 228.362 76.1401 228.565 76.0091C228.771 75.8735 228.93 75.7277 229.039 75.5718L228.898 74.1698L228.269 74.2315C227.961 74.2617 227.69 74.3203 227.457 74.4073C227.224 74.4942 227.046 74.6206 226.925 74.7862C226.807 74.9473 226.761 75.1589 226.788 75.4211C226.821 75.751 226.941 75.9784 227.148 76.1033C227.354 76.2239 227.584 76.2719 227.836 76.2471Z" fill="#5B5B5B"/>
<path d="M232.882 76.7835L231.901 67.0141L233.949 66.6851L234.432 71.5L234.492 72.4807L236.545 69.4926L238.708 69.2803L238.72 69.4009L236.502 72.6743L239.494 75.9426L239.513 76.133L237.44 76.3364L235.051 73.5982L234.683 73.9995L234.943 76.5814L232.882 76.7835Z" fill="#5B5B5B"/>
<path d="M241.222 72.9416L240.237 67.5865L240.096 66.1845L241.977 66L242.118 67.4019L242.268 72.8389L241.222 72.9416ZM242.036 75.9432C241.749 75.9713 241.504 75.895 241.3 75.7143C241.095 75.5293 240.98 75.3058 240.953 75.0436C240.926 74.7729 240.995 74.5313 241.159 74.3187C241.324 74.1061 241.549 73.9857 241.836 73.9576C242.123 73.9294 242.366 74.0038 242.565 74.1807C242.769 74.3572 242.884 74.5808 242.911 74.8515C242.938 75.1137 242.869 75.3553 242.705 75.5764C242.546 75.7928 242.322 75.915 242.036 75.9432Z" fill="#5B5B5B"/>
<path d="M268 48C268 57.9411 259.941 66 250 66C240.059 66 232 57.9411 232 48C232 38.0589 240.059 30 250 30C259.941 30 268 38.0589 268 48Z" fill="#FF6500"/>
<path d="M246.746 61.2397V34.9091H253.403V61.2397H246.746ZM236.909 51.4029V44.7459H263.24V51.4029H236.909Z" fill="white"/>
<path d="M250 29.5C260.217 29.5 268.5 37.7827 268.5 48C268.5 58.2173 260.217 66.5 250 66.5C239.783 66.5 231.5 58.2173 231.5 48C231.5 37.7827 239.783 29.5 250 29.5Z" stroke="#5B5B5B"/>
<path d="M250 29.5C260.217 29.5 268.5 37.7827 268.5 48C268.5 58.2173 260.217 66.5 250 66.5C239.783 66.5 231.5 58.2173 231.5 48C231.5 37.7827 239.783 29.5 250 29.5Z" stroke="black" stroke-opacity="0.2"/>
<path d="M250 29.5C260.217 29.5 268.5 37.7827 268.5 48C268.5 58.2173 260.217 66.5 250 66.5C239.783 66.5 231.5 58.2173 231.5 48C231.5 37.7827 239.783 29.5 250 29.5Z" stroke="black" stroke-opacity="0.2"/>
</svg>
